<?xml version="1.0" encoding="UTF-8" standalone="no"?>
<!-- Created with Inkscape (http://www.inkscape.org/) -->

<svg
   width="1080"
   height="1080"
   viewBox="0 0 1080 1080"
   version="1.1"
   id="SVGRoot"
   sodipodi:docname="icons.svg"
   inkscape:version="1.3.2 (091e20e, 2023-11-25, custom)"
   inkscape:export-filename="profile-de-mono-square.svg"
   inkscape:export-xdpi="96"
   inkscape:export-ydpi="96"
   xmlns:inkscape="http://www.inkscape.org/namespaces/inkscape"
   xmlns:sodipodi="http://sodipodi.sourceforge.net/DTD/sodipodi-0.dtd"
   xmlns="http://www.w3.org/2000/svg"
   xmlns:svg="http://www.w3.org/2000/svg">
  <sodipodi:namedview
     id="namedview923"
     pagecolor="#ffffff"
     bordercolor="#666666"
     borderopacity="1.0"
     inkscape:pageshadow="2"
     inkscape:pageopacity="0.0"
     inkscape:pagecheckerboard="0"
     inkscape:document-units="px"
     showgrid="true"
     inkscape:zoom="0.6349676"
     inkscape:cx="374.82227"
     inkscape:cy="547.27202"
     inkscape:window-width="1366"
     inkscape:window-height="705"
     inkscape:window-x="-8"
     inkscape:window-y="-8"
     inkscape:window-maximized="1"
     inkscape:current-layer="layer1"
     inkscape:showpageshadow="2"
     inkscape:deskcolor="#d1d1d1">
    <inkscape:grid
       type="xygrid"
       id="grid986"
       originx="0"
       originy="0"
       spacingy="1"
       spacingx="1"
       units="px"
       visible="true" />
  </sodipodi:namedview>
  <defs
     id="defs918" />
  <g
     inkscape:label="Capa 1"
     inkscape:groupmode="layer"
     id="layer1">
    <rect
       style="fill:#5fd38d;fill-opacity:0;stroke:none;stroke-width:29.1245;stroke-linecap:round;stroke-linejoin:round"
       id="rect1055"
       width="48"
       height="48"
       x="0"
       y="0"
       ry="0" />
    <path
       id="path2-9"
       style="fill:#000000;fill-opacity:1;stroke:#000000;stroke-width:2.62609;stroke-linecap:butt;stroke-linejoin:miter;stroke-dasharray:none;stroke-opacity:1"
       d="m 651.08027,371.9999 -55.0307,-0.0555 -62.12676,-0.18134 c -57.74549,3.3e-4 -104.55691,52.98763 -104.59147,118.45093 l -0.14388,99.44047 c 0.0344,65.46328 46.84606,118.45059 104.59148,118.45092 l 117.15747,-0.23696 v -2.6e-4 c 0,-18.72127 -0.34375,-37.44258 -0.042,-56.05697 -36.89589,0.11058 -73.79188,0.11014 -110.68783,0.11653 -30.96351,-0.43515 -56.0693,-27.68162 -56.0693,-62.05111 l 0.14386,-99.88479 c 0,-34.36948 25.10579,-61.61595 56.06932,-62.05111 l 110.64161,-0.0665 c 0.022,-18.64806 0.051,-37.26111 0.0881,-55.87415 z"
       sodipodi:nodetypes="cccccccsccccccc" />
    <path
       id="path10-9-6-4"
       style="fill:#000000;fill-opacity:1;stroke:#000000;stroke-width:2.62767;stroke-linecap:round;stroke-opacity:1;paint-order:fill markers stroke"
       d="m 748.32532,371.80677 v -2.6e-4 l -55.15042,-0.13134 0.202,336.1975 h 55.09237 c -0.0653,-32.75676 -0.10478,-65.51354 -0.11241,-98.37084 l 62.04447,0.0807 c 17.9436,-1.3e-4 34.83206,-5.11347 49.5413,-14.13769 l 0.0175,112.29619 h 55.09237 c -0.22354,-112.02181 -0.14397,-224.0439 -0.14397,-336.06586 v -2.6e-4 l -55.15042,-0.13135 0.19295,119.70832 c 0.12106,34.42204 -24.99951,61.68455 -55.98125,62.11997 l -55.64815,0.2287 c -0.0194,-60.43899 0.006,-121.11638 0.006,-181.79378 z"
       sodipodi:nodetypes="ccccccccccccccccc" />
    <path
       id="path10-5-0"
       style="fill:#000000;fill-opacity:1;stroke:#000000;stroke-width:2.62401;stroke-linecap:round;stroke-opacity:1;paint-order:fill markers stroke"
       d="m 165.33472,490.27706 54.90568,-0.22199 c 0,-34.34185 25.95911,-61.59862 56.89772,-62.03343 0.19294,74.58375 0.20753,149.16764 -0.01,223.48758 l -54.69164,-0.0419 v 56.6292 c 54.84107,-0.29622 109.68221,-0.4791 164.52379,-0.57709 v -56.01021 l -54.62463,10e-4 c -0.15518,-74.50113 -0.13762,-149.00336 0.006,-223.55258 l 54.73359,-0.0471 v -56.01022 c -36.61397,0.11774 -73.228,0.10684 -110.01341,0.0698 -75.47133,-0.18719 -111.69464,61.50619 -111.72459,118.30656 z"
       sodipodi:nodetypes="cccccccccccccc" />
  </g>
</svg>
