<?xml version="1.0" encoding="UTF-8" standalone="no"?>
<!-- Created with Inkscape (http://www.inkscape.org/) -->

<svg
   width="1080"
   height="1080"
   viewBox="0 0 1080 1080"
   version="1.1"
   id="SVGRoot"
   sodipodi:docname="icons.svg"
   inkscape:version="1.3.2 (091e20e, 2023-11-25, custom)"
   inkscape:export-filename="profile-por-mono-square.svg"
   inkscape:export-xdpi="96"
   inkscape:export-ydpi="96"
   xmlns:inkscape="http://www.inkscape.org/namespaces/inkscape"
   xmlns:sodipodi="http://sodipodi.sourceforge.net/DTD/sodipodi-0.dtd"
   xmlns="http://www.w3.org/2000/svg"
   xmlns:svg="http://www.w3.org/2000/svg">
  <sodipodi:namedview
     id="namedview923"
     pagecolor="#ffffff"
     bordercolor="#666666"
     borderopacity="1.0"
     inkscape:pageshadow="2"
     inkscape:pageopacity="0.0"
     inkscape:pagecheckerboard="0"
     inkscape:document-units="px"
     showgrid="true"
     inkscape:zoom="0.22449495"
     inkscape:cx="534.53319"
     inkscape:cy="367.49157"
     inkscape:window-width="1366"
     inkscape:window-height="705"
     inkscape:window-x="-8"
     inkscape:window-y="-8"
     inkscape:window-maximized="1"
     inkscape:current-layer="layer1"
     inkscape:showpageshadow="2"
     inkscape:deskcolor="#d1d1d1">
    <inkscape:grid
       type="xygrid"
       id="grid986"
       originx="0"
       originy="0"
       spacingy="1"
       spacingx="1"
       units="px"
       visible="true" />
  </sodipodi:namedview>
  <defs
     id="defs918" />
  <g
     inkscape:label="Capa 1"
     inkscape:groupmode="layer"
     id="layer1">
    <rect
       style="fill:#5fd38d;fill-opacity:0;stroke:none;stroke-width:29.1245;stroke-linecap:round;stroke-linejoin:round"
       id="rect1055"
       width="48"
       height="48"
       x="0"
       y="0"
       ry="0" />
    <path
       id="path2-4"
       style="fill:#000000;fill-opacity:1;stroke:#000000;stroke-width:4.065;stroke-linecap:butt;stroke-linejoin:miter;stroke-dasharray:none;stroke-opacity:1"
       d="m 249.62015,617.12372 c 0,53.2014 38.8619,95.3769 86.7911,96.0505 57.1123,-0.01 114.2245,-0.009 171.3366,-0.1804 -0.4672,28.81373 0.065,57.79287 0.065,86.772 v 4e-4 l -181.351,0.3668 c -89.3856,-5e-4 -161.8463,-82.0209 -161.8998,-183.3532 l 0.2226,-153.9264 c 0.053,-101.3323 72.5142,-183.3527 161.8998,-183.3532 l 96.1677,0.2807 85.1834,0.0861 c -0.057,28.8116 -0.102,57.62321 -0.1364,86.48894 l -171.2651,0.10301 c -47.9292,0.6736 -86.7911,42.8491 -86.7911,96.0505 l -0.047,34.33352 158.6776,0.041 v 85.86522 l -158.8079,0.15146 z"
       sodipodi:nodetypes="cccsccccccccccccccc" />
    <path
       style="fill:#000000;fill-opacity:1;stroke:#000000;stroke-width:4.065;stroke-linecap:butt;stroke-linejoin:miter;stroke-dasharray:none;stroke-opacity:1"
       d="m 572.24226,279.62672 85.3184,0.2032 c 0,70.0931 -0.012,230.9612 -0.1049,337.113 -0.2785,53.3822 38.5834,95.5577 86.3481,96.2313 47.7648,-0.6736 86.6267,-42.8491 86.4393,-96.2512 l -0.2983,-337.4998 85.3184,0.2031 c 0,112.3749 -0.056,224.7499 0.1029,337.1247 0.062,90.1147 -57.957,183.382 -171.9261,183.382 -110.2987,0 -171.2621,-90.247 -171.1265,-183.4011 z"
       id="path27-2-5-0"
       sodipodi:nodetypes="ccccccccccc" />
  </g>
</svg>
