<?xml version="1.0" encoding="UTF-8" standalone="no"?>
<!-- Created with Inkscape (http://www.inkscape.org/) -->

<svg
   width="1080"
   height="1080"
   viewBox="0 0 1080 1080"
   version="1.1"
   id="SVGRoot"
   sodipodi:docname="icons.svg"
   inkscape:version="1.3.2 (091e20e, 2023-11-25, custom)"
   inkscape:export-filename="profile-es-mono-square.svg"
   inkscape:export-xdpi="96"
   inkscape:export-ydpi="96"
   xmlns:inkscape="http://www.inkscape.org/namespaces/inkscape"
   xmlns:sodipodi="http://sodipodi.sourceforge.net/DTD/sodipodi-0.dtd"
   xmlns="http://www.w3.org/2000/svg"
   xmlns:svg="http://www.w3.org/2000/svg">
  <sodipodi:namedview
     id="namedview923"
     pagecolor="#ffffff"
     bordercolor="#666666"
     borderopacity="1.0"
     inkscape:pageshadow="2"
     inkscape:pageopacity="0.0"
     inkscape:pagecheckerboard="0"
     inkscape:document-units="px"
     showgrid="true"
     inkscape:zoom="0.3174838"
     inkscape:cx="400.02041"
     inkscape:cy="401.59529"
     inkscape:window-width="1366"
     inkscape:window-height="705"
     inkscape:window-x="-8"
     inkscape:window-y="-8"
     inkscape:window-maximized="1"
     inkscape:current-layer="layer1"
     inkscape:showpageshadow="2"
     inkscape:deskcolor="#d1d1d1">
    <inkscape:grid
       type="xygrid"
       id="grid986"
       originx="0"
       originy="0"
       spacingy="1"
       spacingx="1"
       units="px"
       visible="true" />
  </sodipodi:namedview>
  <defs
     id="defs918" />
  <g
     inkscape:label="Capa 1"
     inkscape:groupmode="layer"
     id="layer1">
    <rect
       style="fill:#5fd38d;fill-opacity:0;stroke:none;stroke-width:29.1245;stroke-linecap:round;stroke-linejoin:round"
       id="rect1055"
       width="48"
       height="48"
       x="0"
       y="0"
       ry="0" />
    <path
       id="path6-7"
       style="fill:#000000;fill-opacity:1;stroke:#000000;stroke-width:4.065;stroke-linecap:butt;stroke-linejoin:miter;stroke-dasharray:none;stroke-opacity:1"
       d="m 744.33562,279.5486 c -111.9718,-0.3271 -171.8226,91.4632 -171.8711,183.3242 l -0.2227,153.9258 c 0.048,92.1443 60.1488,183.5599 172.0938,183.334 111.9449,0.2259 172.0475,-91.1897 172.0957,-183.334 l -0.2227,-153.9258 c -0.048,-91.861 -59.9013,-183.6513 -171.873,-183.3242 z m 0,86.9297 c 47.9518,0.6736 86.8144,42.8494 86.8144,96.0507 l 0.2227,154.6133 c 0,53.2014 -38.8626,95.3772 -87.0371,96.0508 -48.1746,-0.6736 -87.0352,-42.8494 -87.0352,-96.0508 l 0.2227,-154.6133 c 0,-53.2013 38.8606,-95.3771 86.8125,-96.0507 z" />
    <path
       id="path3-0-9-5-1-37-1-5-4"
       style="fill:#000000;fill-opacity:1;stroke:#000000;stroke-width:4.06504;stroke-linecap:round;stroke-opacity:1;paint-order:fill markers stroke"
       d="m 378.78729,800.39068 -85.2916,0.095 c -0.051,-122.0307 -0.033,-82.7895 -0.022,-204.8202 -72.0173,-48.0005 -125.5514,-103.0142 -128.8557,-194.5702 l -0.055,-120.797 85.3184,0.2032 -0.1087,120.8568 c -0.2753,52.6802 38.5866,94.8557 86.3515,95.5293 47.765,-0.6736 86.6269,-42.8491 86.4395,-96.2512 l -0.2983,-120.338 85.3184,0.2031 0.1029,119.9629 c 3.7952,94.5101 -62.3975,144.1799 -128.8993,195.3736 z"
       sodipodi:nodetypes="cccccccccccccc" />
  </g>
</svg>
