<?xml version="1.0" encoding="UTF-8" standalone="no"?>
<!-- Created with Inkscape (http://www.inkscape.org/) -->

<svg
   width="1080"
   height="1080"
   viewBox="0 0 1080 1080"
   version="1.1"
   id="SVGRoot"
   xml:space="preserve"
   xmlns="http://www.w3.org/2000/svg"
   xmlns:svg="http://www.w3.org/2000/svg"><defs
     id="defs918" /><g
     id="layer1"><g
       id="g5"
       transform="matrix(1.3400228,0,0,1.3400228,-1625.2504,-102.29361)"
       style="fill:#000000;stroke:#000000"><path
         id="path5"
         style="fill:#000000;fill-opacity:1;stroke:#000000;stroke-width:3.594;stroke-linecap:round;stroke-opacity:1;paint-order:fill markers stroke"
         d="m 1615.8301,265.66211 a 213.65353,213.65353 0 0 0 -213.6524,213.65234 213.65353,213.65353 0 0 0 213.6524,213.6543 213.65353,213.65353 0 0 0 213.6543,-213.6543 213.65353,213.65353 0 0 0 -213.6543,-213.65234 z m 0,61.96094 a 151.69267,151.69267 0 0 1 151.6933,151.6914 151.69267,151.69267 0 0 1 -151.6933,151.69336 151.69267,151.69267 0 0 1 -151.6914,-151.69336 151.69267,151.69267 0 0 1 151.6914,-151.6914 z" /><path
         id="path3-0-9-5-1-4-3-8-9-3-6-8-7-1"
         style="fill:#000000;fill-opacity:1;stroke:#000000;stroke-width:2.80326;stroke-linecap:round;stroke-dasharray:none;stroke-opacity:1;paint-order:fill markers stroke"
         d="m 1403.0172,787.00805 c -7.9225,13.72249 -2.5506,31.65617 11.9987,40.05591 14.549,8.39999 32.7659,4.08556 40.6886,-9.63684 16.1887,-28.1416 32.425,-56.25558 48.6991,-84.34777 7.9226,-13.72249 2.5506,-31.6562 -11.9987,-40.0559 -14.5489,-8.40009 -32.766,-4.08551 -40.6887,9.63688 -16.1635,28.15601 -32.4456,56.24353 -48.699,84.34772 z" /><path
         id="path3-0-9-5-1-4-3-8-9-3-6-8-7-7"
         style="fill:#000000;fill-opacity:1;stroke:#000000;stroke-width:2.80326;stroke-linecap:round;stroke-dasharray:none;stroke-opacity:1;paint-order:fill markers stroke"
         d="m 1828.5905,787.00805 c 7.9225,13.72249 2.5506,31.65617 -11.9987,40.05591 -14.549,8.39999 -32.7659,4.08556 -40.6886,-9.63684 -16.1887,-28.1416 -32.425,-56.25558 -48.6991,-84.34777 -7.9226,-13.72249 -2.5506,-31.6562 11.9987,-40.0559 14.5489,-8.40009 32.766,-4.08551 40.6887,9.63688 16.1635,28.15601 32.4456,56.24353 48.699,84.34772 z" /><path
         id="path3-0-9-5-1-4-3-8-9-3-6-8-7-8"
         style="fill:#000000;fill-opacity:1;stroke:#000000;stroke-width:2.80326;stroke-linecap:round;stroke-dasharray:none;stroke-opacity:1;paint-order:fill markers stroke"
         d="m 1403.0155,171.56953 c -7.9225,-13.72249 -2.5506,-31.65617 11.9987,-40.05591 14.549,-8.39999 32.7659,-4.08556 40.6886,9.63684 16.1887,28.1416 32.425,56.25558 48.6991,84.34777 7.9226,13.72249 2.5506,31.6562 -11.9987,40.0559 -14.5489,8.40009 -32.766,4.08551 -40.6887,-9.63688 -16.1635,-28.15601 -32.4456,-56.24353 -48.699,-84.34772 z" /><path
         id="path3-0-9-5-1-4-3-8-9-3-6-8-7"
         style="fill:#000000;fill-opacity:1;stroke:#000000;stroke-width:2.80326;stroke-linecap:round;stroke-dasharray:none;stroke-opacity:1;paint-order:fill markers stroke"
         d="m 1828.5905,171.56858 c 7.9225,-13.72249 2.5506,-31.65617 -11.9987,-40.05591 -14.549,-8.39999 -32.7659,-4.08556 -40.6886,9.63684 -16.1887,28.1416 -32.425,56.25558 -48.6991,84.34777 -7.9226,13.72249 -2.5506,31.6562 11.9987,40.0559 14.5489,8.40009 32.766,4.08551 40.6887,-9.63688 16.1635,-28.15601 32.4456,-56.24353 48.699,-84.34772 z" /><path
         id="path3-0-9-5-1-4-3-8-9-3-6-8-39"
         style="fill:#000000;fill-opacity:1;stroke:#000000;stroke-width:2.80326;stroke-linecap:round;stroke-dasharray:none;stroke-opacity:1;paint-order:fill markers stroke"
         d="m 1277.6637,639.38909 c -13.7224,7.92274 -18.037,26.13973 -9.6368,40.68877 8.3998,14.5491 26.3333,19.92114 40.0558,11.99857 28.0906,-16.27701 56.2086,-32.5063 84.3485,-48.69779 13.7224,-7.92274 18.037,-26.13977 9.6368,-40.68876 -8.3997,-14.54916 -26.3334,-19.92114 -40.0559,-11.99858 -28.076,16.30208 -56.2205,32.48552 -84.3484,48.69779 z" /><path
         id="path3-0-9-5-1-4-3-8-9-3-6-8-3"
         style="fill:#000000;fill-opacity:1;stroke:#000000;stroke-width:2.80326;stroke-linecap:round;stroke-dasharray:none;stroke-opacity:1;paint-order:fill markers stroke"
         d="m 1277.6654,319.18846 c -13.7224,-7.92274 -18.037,-26.13973 -9.6368,-40.68877 8.3998,-14.5491 26.3333,-19.92114 40.0558,-11.99857 28.0906,16.27701 56.2086,32.5063 84.3485,48.69779 13.7224,7.92274 18.037,26.13977 9.6368,40.68876 -8.3997,14.54916 -26.3334,19.92114 -40.0559,11.99858 -28.076,-16.30208 -56.2205,-32.48552 -84.3484,-48.69779 z" /><path
         id="path3-0-9-5-1-4-3-8-9-3-6-8-8"
         style="fill:#000000;fill-opacity:1;stroke:#000000;stroke-width:2.80326;stroke-linecap:round;stroke-dasharray:none;stroke-opacity:1;paint-order:fill markers stroke"
         d="m 1953.9423,639.38812 c 13.7224,7.92274 18.037,26.13973 9.6368,40.68877 -8.3998,14.5491 -26.3333,19.92114 -40.0558,11.99857 -28.0906,-16.27701 -56.2086,-32.5063 -84.3485,-48.69779 -13.7224,-7.92274 -18.037,-26.13977 -9.6368,-40.68876 8.3997,-14.54916 26.3334,-19.92114 40.0559,-11.99858 28.076,16.30208 56.2205,32.48552 84.3484,48.69779 z" /><path
         id="path3-0-9-5-1-4-3-8-9-3-6-7"
         style="fill:#000000;fill-opacity:1;stroke:#000000;stroke-width:2.80326;stroke-linecap:round;stroke-dasharray:none;stroke-opacity:1;paint-order:fill markers stroke"
         d="m 1585.4123,852.20185 c 10e-5,15.8453 13.6192,28.6903 30.4191,28.6901 16.7998,1e-4 30.4189,-12.8448 30.419,-28.6901 -0.051,-32.4657 -0.047,-64.9312 7e-4,-97.3968 -10e-5,-15.8453 -13.6192,-28.6904 -30.4191,-28.6901 -16.7998,-2e-4 -30.4189,12.8448 -30.419,28.6901 0.08,32.4656 0.023,64.9312 -7e-4,97.3968 z" /><path
         id="path3-0-9-5-1-4-3-8-9-3"
         style="fill:#000000;fill-opacity:1;stroke:#000000;stroke-width:2.80326;stroke-linecap:round;stroke-dasharray:none;stroke-opacity:1;paint-order:fill markers stroke"
         d="m 1646.2498,106.42895 c -10e-5,-15.845299 -13.6192,-28.690329 -30.4191,-28.690109 -16.7998,-1.65e-4 -30.4189,12.84481 -30.419,28.690109 0.051,32.46566 0.047,64.93118 -7e-4,97.3968 10e-5,15.8453 13.6192,28.69034 30.4191,28.69012 16.7998,1.7e-4 30.4189,-12.84482 30.419,-28.69012 -0.08,-32.46557 -0.023,-64.9312 7e-4,-97.3968 z" /><path
         id="path3-0-9-5-1-4-3-8-9-3-6"
         style="fill:#000000;fill-opacity:1;stroke:#000000;stroke-width:2.80326;stroke-linecap:round;stroke-dasharray:none;stroke-opacity:1;paint-order:fill markers stroke"
         d="m 1988.7175,509.73415 c 15.8453,-10e-5 28.6903,-13.6192 28.6901,-30.4191 10e-5,-16.7998 -12.8448,-30.4189 -28.6901,-30.419 -32.4657,0.051 -64.9312,0.047 -97.3968,-7e-4 -15.8453,10e-5 -28.6904,13.6192 -28.6901,30.4191 -2e-4,16.7998 12.8448,30.4189 28.6901,30.419 32.4656,-0.08 64.9312,-0.023 97.3968,7e-4 z" /><path
         id="path3-0-9-5-1-4-3-8-9-3-6-6"
         style="fill:#000000;fill-opacity:1;stroke:#000000;stroke-width:2.80326;stroke-linecap:round;stroke-dasharray:none;stroke-opacity:1;paint-order:fill markers stroke"
         d="m 1242.9445,509.73415 c -15.8453,-10e-5 -28.6903,-13.6192 -28.6901,-30.4191 -10e-5,-16.7998 12.8448,-30.4189 28.6901,-30.419 32.4657,0.051 64.9312,0.047 97.3968,-7e-4 15.8453,10e-5 28.6904,13.6192 28.6901,30.4191 2e-4,16.7998 -12.8448,30.4189 -28.6901,30.419 -32.4656,-0.08 -64.9312,-0.023 -97.3968,7e-4 z" /><path
         id="path3-0-9-5-1-4-3-8-9-3-6-8"
         style="fill:#000000;fill-opacity:1;stroke:#000000;stroke-width:2.80326;stroke-linecap:round;stroke-dasharray:none;stroke-opacity:1;paint-order:fill markers stroke"
         d="m 1953.9423,319.18846 c 13.7224,-7.92274 18.037,-26.13973 9.6368,-40.68877 -8.3998,-14.5491 -26.3333,-19.92114 -40.0558,-11.99857 -28.0906,16.27701 -56.2086,32.5063 -84.3485,48.69779 -13.7224,7.92274 -18.037,26.13977 -9.6368,40.68876 8.3997,14.54916 26.3334,19.92114 40.0559,11.99858 28.076,-16.30208 56.2205,-32.48552 84.3484,-48.69779 z" /></g></g></svg>
