<?xml version="1.0" encoding="UTF-8" standalone="no"?>
<!-- Created with Inkscape (http://www.inkscape.org/) -->

<svg
   width="1080"
   height="1080"
   viewBox="0 0 1080 1080"
   version="1.1"
   id="SVGRoot"
   xml:space="preserve"
   xmlns="http://www.w3.org/2000/svg"
   xmlns:svg="http://www.w3.org/2000/svg"><defs
     id="defs918" /><g
     id="layer1"><path
       id="path20"
       style="fill:#000000;stroke:#000000;stroke-width:9.03488;stroke-linecap:round;paint-order:fill markers stroke"
       d="m 529.92973,3.6564964 c -4.57413,0.054943 -9.37999,0.3480773 -14.41111,0.896372 C 242.32781,29.769248 28.384514,259.47932 28.383059,539.25191 28.381959,835.883 268.84988,1076.3515 565.48081,1076.353 c 205.26175,6e-4 383.56511,-115.18364 473.97439,-284.4024 31.6054,-69.31992 -0.4256,-114.17633 -75.19246,-83.62276 -42.83516,17.39385 -89.63444,27.05808 -138.71368,27.05792 C 621.74492,735.38479 456.52903,570.16746 456.52984,366.36331 456.53049,264.6903 497.67117,172.64079 564.18675,105.89736 615.22921,55.552021 598.54153,2.8233084 529.92973,3.6564964 Z M 433.37624,122.04434 c -44.25851,70.8903 -69.91814,154.59015 -69.91863,244.31897 -10e-4,313.20128 285.9113,495.96258 535.29242,456.26205 C 818.49202,916.92169 699.01114,976.8078 565.48081,976.80731 323.82704,976.80632 127.92769,780.90569 127.92866,539.25191 127.92966,343.64907 256.30149,178.06509 433.37624,122.04434 Z" /></g></svg>
