<?xml version="1.0" encoding="UTF-8" standalone="no"?>
<!-- Created with Inkscape (http://www.inkscape.org/) -->

<svg
   width="1080"
   height="1080"
   viewBox="0 0 1080 1080"
   version="1.1"
   id="SVGRoot"
   xml:space="preserve"
   xmlns="http://www.w3.org/2000/svg"
   xmlns:svg="http://www.w3.org/2000/svg"><defs
     id="defs918" /><g
     id="layer1"><path
       id="path20"
       style="fill:#000000;fill-opacity:1;stroke:#000000;stroke-width:3.747;stroke-linecap:round;stroke-dasharray:none;stroke-opacity:1;paint-order:fill markers stroke"
       d="M 539.99913,2.194365 C 366.84231,2.1948687 226.47102,142.56689 226.47145,315.72374 226.58183,470.3058 339.34456,601.73967 492.113,625.34985 c -0.0137,175.95272 0.01,-76.52529 0.01,101.98154 l -116.14066,0.11171 v 100.02407 l 116.40906,-0.0917 C 491.50791,966.02965 540.23893,1080.4274 703.64082,1080 l 0.11337,-100.97442 c -60.12979,-0.058 -112.4344,-27.50389 -112.60591,-151.55841 l 112.85766,-0.0283 -0.48523,-99.88901 -112.52413,-0.10671 c 0.0128,-91.39945 0.0936,-33.38648 0.19345,-102.39838 C 743.27219,600.81925 853.376,469.7232 853.52855,315.72375 853.52872,232.5706 820.49592,152.82326 761.69779,94.025112 702.89931,35.226947 623.15227,2.1941601 539.99913,2.1943735 Z m 0,100.746035 A 212.78381,212.78381 0 0 1 752.78416,315.72374 212.78381,212.78381 0 0 1 539.99913,528.50708 212.78381,212.78381 0 0 1 327.2158,315.72374 212.78381,212.78381 0 0 1 539.99913,102.9404 Z" /></g></svg>
