<?xml version="1.0" encoding="UTF-8" standalone="no"?>
<!-- Created with Inkscape (http://www.inkscape.org/) -->

<svg
   width="1080"
   height="1079.8307"
   viewBox="0 0 1080 1079.8307"
   version="1.1"
   id="SVGRoot"
   xml:space="preserve"
   xmlns="http://www.w3.org/2000/svg"
   xmlns:svg="http://www.w3.org/2000/svg"><defs
     id="defs918" /><g
     id="layer1"><g
       id="layer1-0"
       transform="matrix(0.45751104,-0.45751104,0.45751104,0.45751104,234.25568,351.47956)"
       style="fill:none;stroke:#00ff00"><path
         id="path10-1-8-9-69"
         style="fill:#000000;fill-opacity:1;stroke:#000000;stroke-width:8.22425;stroke-linecap:round;stroke-opacity:1;paint-order:fill markers stroke"
         d="m -817.91924,540.00144 c 8.9e-4,304.38398 246.75462,551.13646 551.13863,551.13566 271.7323003,-0.194 502.63925,-196.27204 544.14244,-464.81627 200.73157,-0.1555 401.5272,-0.0805 602.28662,0.044 -38.26792,67.03146 -76.82055,133.89879 -115.29475,200.81106 -47.54654,80.0383 -155.92551,104.46993 -245.16511,52.75708 L 436.23686,1022.8021 C 606.2629,1121.209 814.01849,1078.94 900.58422,928.45186 L 1075.8843,622.94144 1075.5502,457.05851 900.25009,151.54809 C 813.68438,1.0599682 605.92878,-41.209081 435.90274,57.197901 l 82.94879,142.869119 c 89.2396,-51.71284 197.62151,-27.28119 245.16804,52.75709 38.40949,66.83433 76.83817,133.65756 115.32406,200.44761 -200.24554,0.5393 -400.61161,0.65301 -600.93838,0.67119 C 235.82045,186.60505 3.9275454,-10.869016 -266.78061,-11.13718 c -146.17089,-3e-4 -286.35525,58.066564 -389.71367,161.42496 -103.35842,103.35899 -161.42533,243.54279 -161.42496,389.71366 z m 177.09675,0 c -10e-4,-206.57842 167.46348,-374.04436 374.04188,-374.04481 206.578387,4.5e-4 374.04307,167.46639 374.04187,374.04481 -4.6e-4,206.57722 -167.464654,374.04143 -374.04187,374.04188 -206.57723,-4.5e-4 -374.04142,-167.46466 -374.04188,-374.04188 z" /></g></g></svg>
