<?xml version="1.0" encoding="UTF-8" standalone="no"?>
<!-- Created with Inkscape (http://www.inkscape.org/) -->

<svg
   width="1080"
   height="1080"
   viewBox="0 0 1080 1080"
   version="1.1"
   id="SVGRoot"
   xml:space="preserve"
   xmlns="http://www.w3.org/2000/svg"
   xmlns:svg="http://www.w3.org/2000/svg"><defs
     id="defs918" /><g
     id="layer1"><g
       id="layer1-0-25"
       transform="matrix(0.31018475,-0.31018475,0.31018475,0.31018475,455.12582,238.37368)"
       style="fill:none;stroke:#00ff00"><path
         id="path10-1-8-9-69-5"
         style="fill:#000000;fill-opacity:1;stroke:#000000;stroke-width:8.22425;stroke-linecap:round;stroke-opacity:1;paint-order:fill markers stroke"
         d="m 173.49958,-588.91657 c -15.36575,-14.29748 -32.4856,-27.01566 -51.29658,-37.83634 l -305.51047,-175.29675 -165.88355,-0.33512 -305.51047,175.30102 c -150.48784,86.56555 -192.75638,294.32016 -94.34967,464.34586 l 142.86924,-82.95351 c -51.71275,-89.23942 -27.27942,-197.61712 52.75872,-245.16357 66.91213,-38.47412 133.77923,-77.02565 200.81056,-115.2935 0.0561,90.50541 -2.1e-4,181.00957 0.0192,271.52052 h -202.02723 v 175.67028 l 202.04003,-0.0171 c -0.0125,51.54797 0.05,103.106188 0.0107,154.6474846 C -620.13128,37.843776 -817.91972,269.3843 -817.91904,540.003 c 3.6e-4,122.02383 39.72817,234.72929 106.85577,326.04447 -218.29119,218.25723 95.11456,-95.08894 -126.72807,126.75369 l -144.52776,-144.25028 -124.3524,124.35236 144.83517,144.60886 c -173.47727,171.2805 -255.11477,374.0877 -51.43747,576.7023 l 125.67577,-125.394 c -74.68297,-74.8272 -105.58712,-173.9746 48.4278,-328.4159 l 140.34198,140.2737 123.58181,-124.79 -139.7614,-140.0261 c 113.64634,-113.6145 41.62387,-41.3897 127.54559,-127.06315 246.92918,179.07075 547.197819,104.77245 710.70476,-58.41091 51.24946,-51.24927 130.86065,-152.6575 154.79689,-304.06754 200.50529,-0.1548 401.07692,-0.0795 601.60989,0.0448 -38.26788,67.03139 -76.81934,133.89835 -115.2935,200.81055 -47.54649,80.03822 -155.92619,104.46938 -245.1657,52.75659 l -82.95351,142.86926 c 170.02587,98.4068 377.78022,56.1383 464.34586,-94.34969 L 1075.8835,622.94157 1075.5505,457.06016 900.25159,151.54755 C 813.68597,1.059578 605.92733,-41.209004 435.90146,57.197879 L 518.8507,200.06713 c 89.23951,-51.71279 197.62349,-27.28162 245.16997,52.75658 38.40946,66.83426 76.83753,133.65771 115.32338,200.44769 -200.24534,0.5393 -400.61308,0.65419 -600.93965,0.67237 C 272.65543,417.85254 242.83742,270.98961 124.74307,152.28822 77.474986,104.43902 -25.440446,19.745156 -180.19322,-4.9057279 c 0.005,-51.3646991 0.1501,-102.7168021 0.17289,-154.0839721 l 202.127555,-0.0149 -0.85167,-175.62546 H -179.82395 c 0.10037,-90.40878 0.0597,-180.84091 0.3031,-271.21528 66.78992,38.48582 133.613497,76.91397 200.447691,115.32338 80.038119,47.54643 104.469309,155.93055 52.756582,245.16997 l 142.869247,82.94925 c 86.10594,-148.77248 64.50713,-326.43143 -43.05309,-426.51379 z M -2.0084836,276.06 C 340.32379,618.75337 -177.21329,1140.7446 -523.30738,811.51924 -682.57817,660.5292 -670.56492,416.84808 -532.06741,277.25533 -391.87249,135.57865 -152.81713,125.30997 -2.0084836,276.06 Z" /></g></g></svg>
