<?xml version="1.0" encoding="UTF-8" standalone="no"?>
<!-- Created with Inkscape (http://www.inkscape.org/) -->

<svg
   width="1080"
   height="1080"
   viewBox="0 0 1080 1080"
   version="1.1"
   id="SVGRoot"
   xml:space="preserve"
   xmlns="http://www.w3.org/2000/svg"
   xmlns:svg="http://www.w3.org/2000/svg"><defs
     id="defs918" /><g
     id="layer1"><g
       id="g10"
       transform="matrix(2.3673539,0,0,2.3673539,-6320.8347,1769.1901)"
       style="fill:#000000;stroke:#000000"><path
         id="path3-0-9-5-1-4-3-8-9-7-2-5-0"
         style="fill:#000000;fill-opacity:1;stroke:#000000;stroke-width:1.52359;stroke-linecap:round;stroke-dasharray:none;stroke-opacity:1;paint-order:fill markers stroke"
         d="m 2819.7774,-727.5557 c -6.4652,0.0295 -15.7773,7.31552 -15.7774,16.33991 0.1039,15.80156 0.1609,36.97811 0.1789,63.95008 l 31.4117,-0.58563 -0.022,-48.0688 127.2586,0.0215 -0.022,48.0473 31.4117,0.58563 c 0.018,-26.97197 0.075,-48.14852 0.1789,-63.95008 -10e-5,-9.02439 -9.3122,-16.31043 -15.7774,-16.33991 -52.9463,-0.0926 -105.8949,-0.24129 -158.841,0 z" /><path
         id="path3-0-9-5-1-4-3-8-9-7-2-3"
         style="fill:#000000;fill-opacity:1;stroke:#000000;stroke-width:2.73112;stroke-linecap:round;stroke-dasharray:none;stroke-opacity:1;paint-order:fill markers stroke"
         d="m 2773.5851,-311.39899 252.0058,0.031 0.2081,-319.81958 -252.0056,-0.10713 z" /><path
         id="path3-0-9-5-1-4-3-8-9-7-2-9"
         style="fill:#000000;fill-opacity:1;stroke:#000000;stroke-width:2.73112;stroke-linecap:round;stroke-dasharray:none;stroke-opacity:1;paint-order:fill markers stroke"
         d="m 2739.6476,-311.39899 -34.037,0.031 c -13.9477,0.0127 -34.0368,-10.8962 -34.037,-24.33778 0.2877,-131.99918 0.2742,-220.2726 -0.2081,-271.14406 1e-4,-13.44153 20.0894,-24.29384 34.037,-24.33774 l 34.0368,-0.10713 z" /><path
         id="path3-0-9-5-1-4-3-8-9-7-2"
         style="fill:#000000;fill-opacity:1;stroke:#000000;stroke-width:2.73112;stroke-linecap:round;stroke-dasharray:none;stroke-opacity:1;paint-order:fill markers stroke"
         d="m 3056.5578,-311.39899 34.037,0.031 c 13.9477,0.0127 34.0368,-10.8962 34.037,-24.33778 -0.2877,-131.99918 -0.2742,-220.2726 0.2081,-271.14406 -10e-5,-13.44153 -20.0894,-24.29384 -34.037,-24.33774 l -34.0368,-0.10713 z" /></g></g></svg>
