<?xml version="1.0" encoding="UTF-8" standalone="no"?>
<!-- Created with Inkscape (http://www.inkscape.org/) -->

<svg
   width="1080"
   height="1080"
   viewBox="0 0 1080 1080"
   version="1.1"
   id="SVGRoot"
   xml:space="preserve"
   xmlns="http://www.w3.org/2000/svg"
   xmlns:svg="http://www.w3.org/2000/svg"><defs
     id="defs918" /><g
     id="layer1"><g
       id="g8"
       transform="matrix(1.4400102,0,0,1.4400102,-3570.2436,-608.42597)"
       style="fill:#000000;stroke:#000000"><path
         id="path2-9"
         style="fill:#000000;fill-opacity:1;stroke:#000000;stroke-width:4.065;stroke-linecap:butt;stroke-linejoin:miter;stroke-dasharray:none;stroke-opacity:1"
         d="m 3114.2653,1172.5097 0.086,-85.1834 0.2807,-96.16758 c -5e-4,-89.3857 -82.0209,-161.8463 -183.3532,-161.8998 l -153.9264,-0.2227 c -101.3323,0.053 -183.3527,72.5142 -183.3532,161.8998 l 0.3668,181.35098 h 4e-4 c 28.9791,0 57.9582,-0.5321 86.772,-0.065 -0.1712,-57.1121 -0.1705,-114.2243 -0.1804,-171.3365 0.6736,-47.92918 42.8491,-86.79108 96.0505,-86.79108 l 154.6142,0.2227 c 53.2014,0 95.3769,38.8619 96.0505,86.79108 l 0.103,171.265 c 28.8658,0.034 57.6774,0.079 86.489,0.1364 z" /><path
         id="path13-91"
         style="fill:#000000;fill-opacity:1;stroke:#000000;stroke-width:4.065;stroke-linecap:butt;stroke-linejoin:miter;stroke-dasharray:none;stroke-opacity:1"
         d="m 2854.3156,423.59778 c -228.3249,-0.5621 -227.3614,366.61302 0,366.35932 227.3614,0.2537 228.3249,-366.92142 0,-366.35932 z m 0,86.9355 c 48.2998,0.6737 87.1621,42.84812 87.1621,95.70512 0,52.857 -38.8611,95.1303 -87.1621,95.707 -48.3009,-0.5767 -87.1621,-42.85 -87.1621,-95.707 0,-52.857 38.8624,-95.03142 87.1621,-95.70512 z" /></g></g></svg>
