<?xml version="1.0" encoding="UTF-8" standalone="no"?>
<!-- Created with Inkscape (http://www.inkscape.org/) -->

<svg
   width="1080"
   height="1080"
   viewBox="0 0 1080 1080"
   version="1.1"
   id="SVGRoot"
   xml:space="preserve"
   xmlns="http://www.w3.org/2000/svg"
   xmlns:svg="http://www.w3.org/2000/svg"><defs
     id="defs918" /><g
     id="layer1"><rect
       style="fill:#5fd38d;fill-opacity:0;stroke:none;stroke-width:29.1245;stroke-linecap:round;stroke-linejoin:round"
       id="rect1055"
       width="48"
       height="48"
       x="0"
       y="0"
       ry="0" /><g
       id="g4"
       transform="matrix(1.4300464,0,0,1.4300464,-232.42473,-232.22504)"
       style="fill:#000000;fill-opacity:1;stroke:#000000;stroke-opacity:1"><path
         id="path10-7-3"
         style="fill:#000000;fill-opacity:1;stroke:#000000;stroke-width:4.06504;stroke-linecap:round;stroke-opacity:1;paint-order:fill markers stroke"
         d="m 657.78687,713.1592 86.0799,0.015 c 47.9292,-0.6736 86.7911,-42.8491 86.7911,-96.0505 l 85.0583,-0.3439 c -0.053,101.3323 -72.5142,183.3527 -161.8998,183.3532 l -181.351,-0.3668 -0.2227,-519.89922 h 85.2287 c 0,50.1831 -0.01,100.3662 -5e-4,150.7273 l 132.1748,0.1781 v 86.9465 l -132.1459,-0.026 c 0.038,65.13812 0.1185,130.30242 0.2871,195.46662 z" /><path
         id="path10-3-5-8-8"
         style="fill:#000000;fill-opacity:1;stroke:#000000;stroke-width:4.06504;stroke-linecap:round;stroke-opacity:1;paint-order:fill markers stroke"
         d="m 249.89529,279.95768 c -28.4437,-0.092 -56.8884,0.2162 -85.3321,0.099 0.099,173.2995 0.2177,346.5988 0.2227,519.8984 28.4405,0.057 56.8818,0.1163 85.3223,0.1738 -0.1285,-256.2706 -0.2544,-63.8575 -0.2119,-171.6162 h 95.9199 c 79.2501,-4e-4 159.1895,-64.8119 159.1895,-150.164 0,-87.1992 -78.8025,-154.9274 -160.1524,-154.9278 -31.6529,0 -63.3055,-0.076 -94.958,-0.1781 z m 85.0088,130.4223 c 39.0554,0.5488 82.9472,27.4346 82.9472,67.9687 0,39.4658 -44.0983,63.95 -81.9843,64.4824 l -86.0352,0.211 c 0.015,-43.79 -0.01,-87.8077 -0.5156,-132.2364 z" /></g></g></svg>
