<?xml version="1.0" encoding="UTF-8" standalone="no"?>
<!-- Created with Inkscape (http://www.inkscape.org/) -->

<svg
   width="1080"
   height="1080"
   viewBox="0 0 1080 1080"
   version="1.1"
   id="SVGRoot"
   xml:space="preserve"
   xmlns="http://www.w3.org/2000/svg"
   xmlns:svg="http://www.w3.org/2000/svg"><defs
     id="defs918" /><g
     id="layer1"><rect
       style="fill:#5fd38d;fill-opacity:0;stroke:none;stroke-width:29.1245;stroke-linecap:round;stroke-linejoin:round"
       id="rect1055"
       width="48"
       height="48"
       x="0"
       y="0"
       ry="0" /><path
       style="fill:#000000;fill-opacity:1;stroke:#000000;stroke-width:5.80432;stroke-linecap:butt;stroke-linejoin:miter;stroke-dasharray:none;stroke-opacity:1"
       d="m 845.67455,277.56039 c 127.86093,7.1e-4 231.51185,116.90573 231.41275,261.37737 -0.1695,87.76229 -0.1472,175.48353 -0.1472,263.20491 v 5.7e-4 l -122.04316,0.28949 0.4267,-263.74027 c 0.26807,-76.11474 -55.3217,-136.22817 -123.88158,-137.18827 l -123.14505,0.0171 c -0.0429,133.44083 0.0143,266.88622 0.0143,400.33146 v 5.7e-4 l -122.04318,0.28963 0.31599,-524.17735 c 86.36419,0.28192 172.7268,-0.0955 259.09042,-0.40494 z"
       id="path27-2" /><path
       id="path15-5-5-8"
       style="fill:#000000;fill-opacity:1;stroke:#000000;stroke-width:5.84776;stroke-linecap:butt;stroke-linejoin:miter;stroke-dasharray:none;stroke-opacity:1"
       d="m 135.28269,596.28622 c 119.87447,0.0742 239.74894,0.10056 359.62351,0.10056 0,-192.79562 -67.7813,-319.70343 -247.2077,-319.70343 C 111.29523,272.96607 1.7076325,386.26613 1.7095025,539.86492 c 0,145.54821 104.2375775,263.53974 232.8244175,263.54045 l 260.88488,-0.29202 c -0.019,-41.25711 -0.033,-82.51417 -0.1486,-124.13088 -82.14628,-0.17004 -164.28349,-1.21531 -246.62211,-2.014 -50.34899,-0.69471 -93.73016,-33.47664 -113.3654,-80.68217 z m 222.05073,-122.5026 -218.24688,0.34992 c 46.10366,-95.2273 170.63015,-95.76688 218.24688,-0.34992 z" /></g></svg>
