<?xml version="1.0" encoding="UTF-8" standalone="no"?>
<!-- Created with Inkscape (http://www.inkscape.org/) -->

<svg
   width="1080"
   height="1080"
   viewBox="0 0 1080 1080"
   version="1.1"
   id="SVGRoot"
   xml:space="preserve"
   xmlns="http://www.w3.org/2000/svg"
   xmlns:svg="http://www.w3.org/2000/svg"><defs
     id="defs918" /><g
     id="layer1"><rect
       style="fill:#5fd38d;fill-opacity:0;stroke:none;stroke-width:29.1245;stroke-linecap:round;stroke-linejoin:round"
       id="rect1055"
       width="48"
       height="48"
       x="0"
       y="0"
       ry="0" /><g
       id="g2"
       transform="matrix(1.433294,0,0,1.433294,-233.3837,-331.3307)"
       style="fill:#000000;fill-opacity:1;stroke:#000000;stroke-opacity:1"><path
         id="path15-5-5-8-7"
         style="fill:#000000;fill-opacity:1;stroke:#000000;stroke-width:4.065;stroke-linecap:butt;stroke-linejoin:miter;stroke-dasharray:none;stroke-opacity:1"
         d="m 257.4138,656.15662 c 83.3293,0.0516 166.6586,0.0699 249.9879,0.0699 0,-134.01957 -47.1173,-222.23801 -171.8434,-222.23801 -94.8191,-2.58402 -170.9976,76.17516 -170.9963,182.94751 0,101.1761 72.4595,183.1965 161.8451,183.197 l 181.351,-0.203 c -0.013,-28.67938 -0.023,-57.35874 -0.1033,-86.28809 -57.103,-0.1182 -114.1997,-0.84481 -171.4364,-1.40001 C 301.2189,711.759 271.063,688.97103 257.4138,656.15667 Z M 411.7697,571.0004 260.058,571.24364 c 32.0484,-66.19612 118.6115,-66.5712 151.7117,-0.24324 z" /><path
         d="m 823.92522,651.29622 c -12.4402,36.1673 -44.0046,61.3589 -80.9593,61.8782 -56.7934,-0.013 -113.5868,-0.012 -170.3802,-0.012 l -0.093,86.6606 c 60.1413,-0.1144 120.2819,0.1163 180.4228,0.31 89.3855,-5e-4 161.8462,-82.0209 161.6919,-183.3818 l -0.085,-52.3146 c -83.9097,-0.03 -167.8193,0.01 -251.7288,0.1108 12.4402,-36.1673 44.0046,-61.3589 80.9593,-61.8782 l 86.0887,0.012 0.1859,-86.6606 -96.2243,-0.31 c -89.3855,5e-4 -161.8462,82.0209 -161.6919,183.3818 l 0.085,52.3146 c 83.9096,0.03 167.8192,-0.01 251.7288,-0.1108 z"
         style="fill:#000000;fill-opacity:1;stroke:#000000;stroke-width:4.065;stroke-linecap:butt;stroke-linejoin:miter;stroke-dasharray:none;stroke-opacity:1"
         id="path1-0-5" /></g></g></svg>
