<?xml version="1.0" encoding="UTF-8" standalone="no"?>
<!-- Created with Inkscape (http://www.inkscape.org/) -->

<svg
   width="1080"
   height="1080"
   viewBox="0 0 1080 1080"
   version="1.1"
   id="SVGRoot"
   xml:space="preserve"
   xmlns="http://www.w3.org/2000/svg"
   xmlns:svg="http://www.w3.org/2000/svg"><defs
     id="defs918" /><g
     id="layer1"><rect
       style="fill:#5fd38d;fill-opacity:0;stroke:none;stroke-width:29.1245;stroke-linecap:round;stroke-linejoin:round"
       id="rect1055"
       width="48"
       height="48"
       x="0"
       y="0"
       ry="0" /><g
       id="g3"
       transform="matrix(1.4305755,0,0,1.4305755,-232.51071,-233.94009)"
       style="fill:#000000;fill-opacity:1;stroke:#000000;stroke-opacity:1"><path
         id="path15-5-5-8"
         style="fill:#000000;fill-opacity:1;stroke:#000000;stroke-width:4.06499;stroke-linecap:butt;stroke-linejoin:miter;stroke-dasharray:none;stroke-opacity:1"
         d="m 665.09333,655.96827 c 83.32907,0.0514 166.65815,0.0699 249.98732,0.0699 0,-134.01919 -47.11726,-222.23738 -171.84303,-222.23738 -94.81884,-2.58403 -170.99715,76.17496 -170.99585,182.94704 0,101.17581 72.45931,183.19597 161.84467,183.19645 l 181.35054,-0.20298 c -0.0132,-28.6793 -0.0229,-57.3586 -0.1033,-86.28787 -57.10287,-0.11817 -114.19942,-0.8448 -171.43597,-1.4 -34.9994,-0.48292 -65.15522,-23.2708 -78.80438,-56.08512 z m 154.35548,-85.15598 -151.71129,0.24323 c 32.04832,-66.19594 118.61118,-66.57104 151.71129,-0.24323 z" /><path
         id="path15-5-5-9"
         style="fill:#000000;fill-opacity:1;stroke:#000000;stroke-width:4.065;stroke-linecap:butt;stroke-linejoin:miter;stroke-dasharray:none;stroke-opacity:1"
         d="m 508.0002,282.05397 h -85.5633 l 0.01,151.73596 -96.0398,-0.23956 c -89.3856,5e-4 -161.8463,82.0208 -161.8451,183.1969 0,101.1761 72.4595,183.1965 161.8451,183.197 l 181.351,-0.203 C 507.6771,627.17861 507.7251,454.61635 508,282.05397 Z m -85.2478,430.9069 -86.3953,-1.0395 c -47.9306,-0.5767 -86.7922,-42.8491 -86.7922,-95.7061 0,-52.8571 38.8628,-95.0325 86.7922,-95.7062 l 86.0798,0.015 z" /></g></g></svg>
