<?xml version="1.0" encoding="UTF-8" standalone="no"?>
<!-- Created with Inkscape (http://www.inkscape.org/) -->

<svg
   width="1080"
   height="1080"
   viewBox="0 0 1080 1080"
   version="1.1"
   id="SVGRoot"
   xml:space="preserve"
   xmlns="http://www.w3.org/2000/svg"
   xmlns:svg="http://www.w3.org/2000/svg"><defs
     id="defs918" /><g
     id="layer1"><rect
       style="fill:#5fd38d;fill-opacity:0;stroke:none;stroke-width:29.1245;stroke-linecap:round;stroke-linejoin:round"
       id="rect1055"
       width="48"
       height="48"
       x="0"
       y="0"
       ry="0" /><g
       id="g5"
       transform="matrix(1.4307104,0,0,1.4307104,-232.53265,-232.58362)"><path
         style="fill:#073b4c;fill-opacity:1;stroke:#073b4c;stroke-width:4.065;stroke-linecap:butt;stroke-linejoin:miter;stroke-dasharray:none;stroke-opacity:1"
         d="m 264.5009,798.65188 -10e-5,4e-4 85.3215,0.1725 v 0 c -0.1285,-256.2708 -0.2551,-106.7165 -0.2703,-215.5577 l 158.8079,-0.1515 v -85.8652 l -158.6775,-0.041 c 0.082,-59.2866 13.3277,-126.718 86.8384,-130.384 l 71.8351,-0.069 -0.1247,-86.6537 c -27.3058,-0.053 -54.4829,-0.1256 -81.66,-0.2357 -89.3857,5e-4 -161.8463,82.0209 -161.8998,183.3532 -0.014,11.3827 -0.027,22.7653 0.045,34.0688 l -100.1544,-0.079 v 86.0577 l 99.9239,0.096 c -8e-4,71.8267 -0.027,143.5579 0.015,215.2891 z"
         id="path15-55" /><path
         style="fill:#073b4c;fill-opacity:1;stroke:#073b4c;stroke-width:4.065;stroke-linecap:butt;stroke-linejoin:miter;stroke-dasharray:none;stroke-opacity:1"
         d="m 830.2437,615.29167 c 0.1874,-53.4021 -38.6745,-95.5776 -86.6036,-96.2512 l -86.0887,0.012 c -0.03,93.6219 0.01,187.247 0.01,280.8721 v 4e-4 l -85.3184,0.2032 0.2209,-367.7622 c 60.3758,0.1979 120.7505,-0.067 181.1259,-0.284 89.3855,5e-4 161.8462,82.0209 161.7769,183.3819 z"
         id="path27-2-6-4" /></g></g></svg>
