<?xml version="1.0" encoding="UTF-8" standalone="no"?>
<!-- Created with Inkscape (http://www.inkscape.org/) -->

<svg
   width="1080"
   height="1080"
   viewBox="0 0 1080 1080"
   version="1.1"
   id="SVGRoot"
   xml:space="preserve"
   xmlns="http://www.w3.org/2000/svg"
   xmlns:svg="http://www.w3.org/2000/svg"><defs
     id="defs918" /><g
     id="layer1"><path
       id="path10-1-8-9-69"
       style="fill:#000000;fill-opacity:1;stroke:#000000;stroke-width:8.22425;stroke-linecap:round;stroke-opacity:1;paint-order:fill markers stroke"
       d="M 4.1121491,453.94054 V 626.69071 C 295.82506,626.10651 587.77792,626.1826 879.64985,626.36367 841.38189,693.3952 802.82938,760.26242 764.35514,827.17475 716.80855,907.21313 608.42774,931.64518 519.18805,879.93228 l -82.95119,142.86912 c 170.02621,98.407 377.78111,56.1385 464.34692,-94.34978 L 1075.8856,622.94152 1075.5506,457.05845 900.24869,151.54838 C 813.68289,1.0601109 605.92799,-41.208434 435.90178,57.198646 L 518.85296,200.0677 c 89.23969,-51.71289 197.62052,-27.28083 245.1671,52.75753 38.40953,66.8344 76.83852,133.65748 115.32445,200.4476 -291.65302,0.78547 -583.56227,0.66771 -875.2323609,0.66771 z" /></g></svg>
