<?xml version="1.0" encoding="UTF-8" standalone="no"?>
<!-- Created with Inkscape (http://www.inkscape.org/) -->

<svg
   width="1080"
   height="1080"
   viewBox="0 0 1080 1080"
   version="1.1"
   id="SVGRoot"
   xml:space="preserve"
   xmlns="http://www.w3.org/2000/svg"
   xmlns:svg="http://www.w3.org/2000/svg"><defs
     id="defs918" /><g
     id="layer1"><path
       id="path3-0-9-5-1-4-3-8-9-7-8-8-0-5-7"
       style="fill:#000000;fill-opacity:1;stroke:#000000;stroke-width:3.87553;stroke-linecap:round;stroke-dasharray:none;stroke-opacity:1;paint-order:fill markers stroke"
       d="m 745.69115,3.1750941 c -32.08901,0 -70.17435,10.6418529 -70.17459,23.7702049 0.036,45.795544 0.1455,91.591391 0.12878,137.386821 -90.30319,0.0568 -180.60706,0.0644 -270.91013,-0.0598 -0.0378,-59.38178 0.17328,-105.473098 0.7832,-135.94682 -2.4e-4,-13.128352 -38.08446,-23.7702049 -70.17335,-23.7702049 -32.08907,0 -70.17317,10.6418529 -70.17341,23.7702049 0.0354,45.198746 0.14544,90.39767 0.13232,135.5963 L 152.0045,162.67728 c -32.08712,-0.35248 -70.173167,31.20071 -70.173407,69.69056 l -0.42914,777.02966 c -0.0134,24.3542 24.782527,70.1731 69.690257,70.1734 L 927.51395,1080 c 36.0397,-2e-4 70.6548,-35.9228 70.6549,-70.7825 l 0.4292,-776.42052 c -2e-4,-38.4898 -38.0881,-66.34427 -70.1734,-66.82956 L 815.08106,164.2532 C 815.03895,104.19088 815.24854,57.649306 815.86304,26.945054 815.86279,13.816703 777.7798,3.17485 745.69085,3.17485 Z M 858.30521,384.40449 c 0.092,185.09135 0.0909,370.18303 -0.38147,555.27402 -212.07714,0.0909 -424.15444,0.18713 -636.23106,-0.35163 -0.33783,-242.82494 -0.27972,-419.67951 0.0774,-555.20492 405.07284,-0.88818 515.85222,-0.52423 636.53508,0.28253 z" /><g
       id="g5"
       transform="matrix(0.6807999,0,0,0.6807999,1579.782,272.01801)"
       style="fill:#000000;fill-opacity:1;stroke:#000000;stroke-opacity:1"><path
         id="path10-5-0-5-9"
         style="fill:#000000;fill-opacity:1;stroke:#000000;stroke-width:4.06504;stroke-linecap:round;stroke-opacity:1;paint-order:fill markers stroke"
         d="m -1276.0787,279.43941 c -28.5968,0.012 -57.2269,-0.01 -85.9244,-0.036 -58.459,-0.145 -101.7176,23.6759 -130.3671,58.5322 l 68.4386,56.6548 c 16.0449,-17.2907 38.081,-28.0155 62.0456,-28.3523 0.2989,115.5431 0.3215,231.0863 -0.015,346.22058 l -133.3255,-0.065 v 87.7283 c 84.9582,-0.4589 258.1628,-0.7422 343.1218,-0.894 v -86.7694 h -124.2704 c -0.2404,-115.41508 -0.2132,-317.39118 0.01,-432.88068" /><path
         d="m -1559.9292,616.53022 c -0.6185,90.0717 -58.3835,183.6028 -172.667,183.6028 -17.5752,0 -145.4634,-4.9936 -168.6259,-149.4434 l 88.0332,0.787 c 12.4314,35.9866 43.9958,61.1783 80.9018,61.6976 47.8805,-0.6736 86.7424,-42.8491 87.2349,-96.644 0.8674,-53.7949 -37.9945,-95.9704 -85.9236,-96.644 -57.0761,0.012 -114.1522,0.012 -171.2283,0.012 l -0.2741,-86.9112 h 167.2743 c -12.2874,-36.1207 -43.8518,-61.3123 -80.8065,-61.8316 l -86.0887,0.012 -0.1859,-86.6606 96.2243,-0.31 c 85.6329,5e-4 155.7323,75.2787 161.4944,170.6326 50.8386,30.8663 85.154,91.6275 84.6371,161.6958 z"
         style="fill:#000000;fill-opacity:1;stroke:#000000;stroke-width:4.065;stroke-linecap:butt;stroke-linejoin:miter;stroke-dasharray:none;stroke-opacity:1"
         id="path1-10-78-0-5-6" /></g></g></svg>
