<?xml version="1.0" encoding="UTF-8" standalone="no"?>
<!-- Created with Inkscape (http://www.inkscape.org/) -->

<svg
   width="1080"
   height="1080"
   viewBox="0 0 1080 1080"
   version="1.1"
   id="SVGRoot"
   xml:space="preserve"
   xmlns="http://www.w3.org/2000/svg"
   xmlns:svg="http://www.w3.org/2000/svg"><defs
     id="defs918" /><g
     id="layer1"><path
       id="path3-0-9-5-1-4-3-8-9-7"
       style="fill:#000000;fill-opacity:1;stroke:#000000;stroke-width:10.5791;stroke-linecap:round;stroke-dasharray:none;stroke-opacity:1;paint-order:fill markers stroke"
       d="m 883.46431,1047.1552 c 42.19316,42.1926 120.54489,32.2469 157.74379,-4.952 37.1989,-37.1988 47.1445,-115.55055 4.9519,-157.74371 C 631.12913,470.80354 354.0725,193.68231 195.54056,32.84483 153.34741,-9.3477539 74.995678,0.59791001 37.796805,37.796783 0.59791848,74.99567 -9.3477587,153.34741 32.844812,195.54056 316.63097,479.16688 600.76849,762.44027 883.46431,1047.1552 Z" /><path
       id="path3-0-9-5-1-4-3-8-9-7-8"
       style="fill:#000000;fill-opacity:1;stroke:#000000;stroke-width:10.5791;stroke-linecap:round;stroke-dasharray:none;stroke-opacity:1;paint-order:fill markers stroke"
       d="m 32.844836,883.46425 c -42.1925978,42.19318 -32.24692061,120.54495 4.951953,157.74375 37.198873,37.1989 115.550601,47.1446 157.743771,4.952 413.6559,-415.03089 690.77715,-692.08751 851.61464,-850.61945 42.1926,-42.19314 32.2469,-120.544884 -4.952,-157.743757 C 1005.0043,0.59791971 926.65259,-9.3477575 884.45944,32.844813 600.83312,316.63095 317.55975,600.76849 32.844836,883.46425 Z" /></g></svg>
