<?xml version="1.0" encoding="UTF-8" standalone="no"?>
<!-- Created with Inkscape (http://www.inkscape.org/) -->

<svg
   width="1080"
   height="1080"
   viewBox="0 0 1080 1080"
   version="1.1"
   id="SVGRoot"
   xml:space="preserve"
   xmlns="http://www.w3.org/2000/svg"
   xmlns:svg="http://www.w3.org/2000/svg"><defs
     id="defs918" /><g
     id="layer1"><path
       id="path3-0-9-5-1-4-3-8-9-7-3"
       style="fill:#000000;fill-opacity:1;stroke:#000000;stroke-width:7.65196;stroke-linecap:round;stroke-dasharray:none;stroke-opacity:1;paint-order:fill markers stroke"
       d="m 988.95379,153.26572 c -18.68121,0.42239 -37.03823,6.55482 -50.39009,19.90656 C 833.38442,279.88107 646.022,467.29084 385.72764,726.8347 L 139.74161,481.96616 C 108.4466,452.24455 51.977628,460.8965 25.773726,488.48724 -0.43019856,516.07801 -6.1609157,572.91677 25.133763,602.63879 L 324.99506,901.13823 c 0.63647,0.69553 1.22831,1.45291 1.8888,2.11344 0.71816,0.71817 1.53756,1.36431 2.29707,2.05405 l 2.94834,2.93425 c 14.62949,13.89399 34.75731,19.31671 54.72572,18.42458 19.9492,0.35377 39.88552,-5.5906 54.12672,-19.83163 1.61603,-1.62759 3.24217,-3.24506 4.85833,-4.8725 0.0804,-0.0837 0.17586,-0.15747 0.25571,-0.24159 0.0316,-0.0333 0.0589,-0.0725 0.0904,-0.10589 C 546.70177,800.39666 647.4561,699.4194 748.31626,598.54757 850.91376,495.93824 953.61027,393.42607 1056.2428,290.85136 c 30.5183,-30.51867 23.325,-87.19013 -3.5813,-114.09644 -15.1347,-15.13476 -39.6891,-24.03226 -63.70771,-23.4892 z" /></g></svg>
