<?xml version="1.0" encoding="UTF-8" standalone="no"?>
<!-- Created with Inkscape (http://www.inkscape.org/) -->

<svg
   width="1080"
   height="1080"
   viewBox="0 0 1080 1080"
   version="1.1"
   id="SVGRoot"
   xml:space="preserve"
   xmlns="http://www.w3.org/2000/svg"
   xmlns:svg="http://www.w3.org/2000/svg"><defs
     id="defs918" /><g
     id="layer1"><g
       id="g8"
       transform="matrix(1.6142798,0,0,1.6142798,-479.67311,-540.78372)"
       style="fill:#000000;stroke:#000000"><path
         style="fill:#000000;fill-opacity:1;stroke:#000000;stroke-width:4.065;stroke-linecap:butt;stroke-linejoin:miter;stroke-dasharray:none;stroke-opacity:1"
         d="m 551.60936,854.7391 c -30.71178,0.13734 -61.22161,0.30448 -91.56926,0.50897 0.2942,-79.3279 -0.046,-158.65807 0.9632,-237.98077 57.0761,0 114.1522,0 171.2283,0.012 47.9291,-0.6736 86.791,-42.8491 85.9236,-96.644 -0.4925,-53.7949 -39.3544,-95.9704 -87.2349,-96.644 -36.906,0.5193 -68.4704,25.711 -80.9018,61.6976 l -88.0332,0.787 C 485.1478,342.0261 613.036,337.0325 630.6112,337.0325 c 114.2835,0 172.0485,93.5311 172.667,183.6028 0.7493,101.5819 -71.7114,183.6023 -161.0969,183.6028 l -90.5807,-0.1112 z"
         id="path8-3" /><path
         id="path3-0-9-5-1-4-3-8-9-8"
         style="fill:#000000;fill-opacity:1;stroke:#000000;stroke-width:5.11082;stroke-linecap:round;stroke-dasharray:none;stroke-opacity:1;paint-order:fill markers stroke"
         d="m 519.16661,890.55541 c 28.8887,2e-4 52.3074,24.8301 52.307,55.4591 3e-4,30.629 -23.4183,55.45889 -52.307,55.45909 l -58.6112,-0.061 V 890.66681 Z" /></g></g></svg>
