<?xml version="1.0" encoding="UTF-8" standalone="no"?>
<!-- Created with Inkscape (http://www.inkscape.org/) -->

<svg
   width="1080"
   height="1080"
   viewBox="0 0 1080 1080"
   version="1.1"
   id="SVGRoot"
   xml:space="preserve"
   xmlns="http://www.w3.org/2000/svg"
   xmlns:svg="http://www.w3.org/2000/svg"><defs
     id="defs918" /><g
     id="layer1"><g
       id="g6"
       transform="matrix(1.0274414,-1.0274414,1.0274414,1.0274414,-569.68239,539.68229)"
       style="fill:#000000;fill-opacity:1;stroke:#000000;stroke-opacity:1"><path
         id="path3-0-9-5-1-4-3-8-9-7-8"
         style="fill:#000000;fill-opacity:1;stroke:#000000;stroke-width:3.8744;stroke-linecap:round;stroke-dasharray:none;stroke-opacity:1;paint-order:fill markers stroke"
         d="m 275.9399,497.8159 c -21.853,10e-5 -39.5678,22.866 -39.5678,42.1324 0,19.2664 17.7148,42.1324 39.5677,42.1325 214.6008,-0.356 445.4149,-0.4938 528.1204,0.1033 21.853,-10e-5 39.5677,-22.8661 39.5677,-42.1325 -10e-5,-19.2665 -17.7147,-42.1323 -39.5677,-42.1325 -146.9399,0.042 -381.181,0.4196 -528.1203,-0.1032 z" /><g
         id="g5"
         transform="rotate(90,1969.8374,-1521.5354)"
         style="fill:#000000;fill-opacity:1;stroke:#000000;stroke-opacity:1"><path
           style="fill:#000000;fill-opacity:1;stroke:#000000;stroke-width:4.065;stroke-linecap:butt;stroke-linejoin:miter;stroke-dasharray:none;stroke-opacity:1"
           d="m 3859.9436,-18.580939 85.3183,0.20323 c 1e-4,70.093096 -0.012,88.773689 -0.1048,194.925449 -0.2785,53.38225 38.5833,95.55777 86.3481,96.23133 47.7648,-0.67359 86.6267,-42.8491 86.4393,-96.25122 l -0.2984,-195.312249 85.3184,0.2031 0.1029,194.937209 c 0.062,90.11465 -57.9569,183.38197 -171.926,183.38195 -110.2987,3e-5 -171.2622,-90.24695 -171.1266,-183.40106 z"
           id="path27-2-5-0" /><path
           style="fill:#000000;fill-opacity:1;stroke:#000000;stroke-width:4.065;stroke-linecap:butt;stroke-linejoin:miter;stroke-dasharray:none;stroke-opacity:1"
           d="m 3859.6789,-164.81501 85.3183,-0.20323 c 1e-4,-70.09309 -0.012,-88.77368 -0.1048,-194.92544 -0.2785,-53.38225 38.5833,-95.55777 86.3481,-96.23133 47.7648,0.67359 86.6266,42.8491 86.4393,96.25122 l -0.2984,195.31224 85.3184,-0.2031 0.1029,-194.9372 c 0.062,-90.11465 -57.9569,-183.38197 -171.926,-183.38195 -110.2987,-3e-5 -171.2622,90.24695 -171.1266,183.40106 z"
           id="path27-2-5-0-0" /></g></g></g></svg>
