<?xml version="1.0" encoding="UTF-8" standalone="no"?>
<!-- Created with Inkscape (http://www.inkscape.org/) -->

<svg
   width="1080"
   height="1080"
   viewBox="0 0 1080 1080"
   version="1.1"
   id="SVGRoot"
   xml:space="preserve"
   xmlns="http://www.w3.org/2000/svg"
   xmlns:svg="http://www.w3.org/2000/svg"><defs
     id="defs918" /><g
     id="layer1"><path
       id="path3-0-9-5-1-4-3-8-9-7"
       style="fill:#000000;fill-opacity:1;stroke:#000000;stroke-width:7.9854;stroke-linecap:round;stroke-dasharray:none;stroke-opacity:1;paint-order:fill markers stroke"
       d="m 994.33796,627.00232 c 45.04034,-3.1e-4 81.55164,-47.12849 81.55164,-86.83782 0,-39.70932 -36.5113,-86.83749 -81.55164,-86.83779 -442.30631,0.73388 -738.0952,0.69939 -908.556579,-0.53117 -45.04034,3e-4 -81.5516395,47.12847 -81.5516395,86.83779 0,39.70933 36.5112995,86.83751 81.5516395,86.83782 302.852769,-0.0853 605.704709,-0.54654 908.556579,0.53117 z" /><path
       id="path3-0-9-5-1-4-3-8-9-7-8"
       style="fill:#000000;fill-opacity:1;stroke:#000000;stroke-width:7.9854;stroke-linecap:round;stroke-dasharray:none;stroke-opacity:1;paint-order:fill markers stroke"
       d="m 452.89661,994.27823 c 3.1e-4,45.04037 47.12849,81.55167 86.83782,81.55167 39.70932,0 86.83749,-36.5113 86.83779,-81.55167 -0.73388,-442.30625 -0.69939,-738.09514 0.53117,-908.55652 -3e-4,-45.04034 -47.12847,-81.55164 -86.83779,-81.55164 -39.70933,0 -86.83751,36.5113 -86.83782,81.55164 0.0853,302.85277 0.54654,605.70471 -0.53117,908.55652 z" /></g></svg>
