<?xml version="1.0" encoding="UTF-8" standalone="no"?>
<!-- Created with Inkscape (http://www.inkscape.org/) -->

<svg
   width="1080"
   height="1080"
   viewBox="0 0 1080 1080"
   version="1.1"
   id="SVGRoot"
   xml:space="preserve"
   xmlns="http://www.w3.org/2000/svg"
   xmlns:svg="http://www.w3.org/2000/svg"><defs
     id="defs918" /><g
     id="layer1"><g
       id="g6"
       transform="matrix(1.8633656,0,0,1.8633656,-3057.7289,-1683.1117)"><path
         id="path2-9"
         style="fill:#000000;fill-opacity:1;stroke:#000000;stroke-width:0;stroke-linecap:butt;stroke-linejoin:miter;stroke-dasharray:none;stroke-opacity:1"
         d="m 1921.155,933.03252 c -89.3857,5e-4 -161.8463,82.02088 -161.8998,183.35318 l -0.2227,153.9264 c 0.053,101.3323 72.5142,183.3527 161.8998,183.3532 l 154.076,-0.3672 c 17.0631,-0.041 27.0875,-26.3848 27.0673,-43.448 -0.02,-17.0396 -10.0927,-43.3453 -27.1323,-43.324 l -144.0615,0.1804 c -47.9292,-0.6736 -86.7911,-42.8491 -86.7911,-96.0505 l 0.2227,-154.6142 c 0,-53.2014 38.8619,-95.3769 86.7911,-96.0505 l 143.99,-0.103 c 17.0587,-0.012 27.3282,-26.20611 27.334,-43.2648 0.01,-17.00086 -10.2115,-43.08635 -27.2123,-43.1365 z" /><path
         id="path3-0-9-5-1-4-3-8-9-1"
         style="fill:#000000;fill-opacity:1;stroke:#000000;stroke-width:5.11082;stroke-linecap:round;stroke-dasharray:none;stroke-opacity:1;paint-order:fill markers stroke"
         d="m 1702.1376,1137.8898 c 28.8887,2e-4 52.3074,24.8301 52.307,55.4591 3e-4,30.629 -23.4183,55.4589 -52.307,55.4591 l -58.6112,-0.061 v -110.7458 z" /><path
         id="path3-0-9-5-1-4-3-8-9-1-5"
         style="fill:#000000;fill-opacity:1;stroke:#000000;stroke-width:5.11082;stroke-linecap:round;stroke-dasharray:none;stroke-opacity:1;paint-order:fill markers stroke"
         d="m 2159.4008,920.8496 c -28.8887,2e-4 -52.3074,24.8301 -52.307,55.4591 -3e-4,30.629 23.4183,55.4589 52.307,55.4591 l 58.6112,-0.061 V 920.961 Z" /><path
         id="path3-0-9-5-1-4-3-8-9-1-1"
         style="fill:#000000;fill-opacity:1;stroke:#000000;stroke-width:5.11082;stroke-linecap:round;stroke-dasharray:none;stroke-opacity:1;paint-order:fill markers stroke"
         d="m 2159.4008,1354.3573 c -28.8887,2e-4 -52.3074,24.8301 -52.307,55.4591 -3e-4,30.629 23.4183,55.4589 52.307,55.4591 l 58.6112,-0.061 v -110.7458 z" /></g></g></svg>
